STARTFONT 2.1
FONT -FontForge-Trueno-Regular-R-Normal--8-80-75-75-P-45-ISO10646-1
SIZE 8 75 75
FONTBOUNDINGBOX 13 10 -2 -2
COMMENT "Generated by fontforge, http://fontforge.sourceforge.net"
COMMENT "Copyright (c) 2014 by Julieta Ulanovsky. All rights reserved, Design Modifications and new weights 2015, Jasper @ Cannot Into Space Fonts"
STARTPROPERTIES 39
FOUNDRY "FontForge"
FAMILY_NAME "Trueno"
WEIGHT_NAME "Regular"
SLANT "R"
SETWIDTH_NAME "Normal"
ADD_STYLE_NAME ""
PIXEL_SIZE 8
POINT_SIZE 80
RESOLUTION_X 75
RESOLUTION_Y 75
SPACING "P"
AVERAGE_WIDTH 45
CHARSET_REGISTRY "ISO10646"
CHARSET_ENCODING "1"
FONTNAME_REGISTRY ""
CHARSET_COLLECTIONS "ISO8859-2 ISO8859-9 ISO8859-4 ISO10646-1"
FONT_NAME "TruenoRg"
FACE_NAME "Trueno Regular"
COPYRIGHT "Copyright (c) 2014 by Julieta Ulanovsky. All rights reserved, Design Modifications and new weights 2015, Jasper @ Cannot Into Space Fonts"
FONT_VERSION "3.001b"
FONT_ASCENT 6
FONT_DESCENT 2
UNDERLINE_POSITION -1
UNDERLINE_THICKNESS 1
X_HEIGHT 4
CAP_HEIGHT 5
RAW_ASCENT 800
RAW_DESCENT 200
NORM_SPACE 2
RELATIVE_WEIGHT 40
RELATIVE_SETWIDTH 50
SUPERSCRIPT_X 0
SUPERSCRIPT_Y 2
SUPERSCRIPT_SIZE 4
SUBSCRIPT_X 0
SUBSCRIPT_Y 0
SUBSCRIPT_SIZE 4
AVG_LOWERCASE_WIDTH 44
AVG_UPPERCASE_WIDTH 54
ENDPROPERTIES
CHARS 378
STARTCHAR space
ENCODING 32
SWIDTH 258 0
DWIDTH 2 0
BBX 1 1 0 0
BITMAP
00
ENDCHAR
STARTCHAR exclam
ENCODING 33
SWIDTH 210 0
DWIDTH 2 0
BBX 1 5 0 0
BITMAP
80
80
80
00
80
ENDCHAR
STARTCHAR quotedbl
ENCODING 34
SWIDTH 362 0
DWIDTH 3 0
BBX 2 2 0 4
BITMAP
C0
80
ENDCHAR
STARTCHAR numbersign
ENCODING 35
SWIDTH 725 0
DWIDTH 6 0
BBX 6 6 0 0
BITMAP
48
7C
50
50
F8
50
ENDCHAR
STARTCHAR dollar
ENCODING 36
SWIDTH 621 0
DWIDTH 5 0
BBX 5 8 0 -1
BITMAP
20
70
60
60
30
A8
70
20
ENDCHAR
STARTCHAR percent
ENCODING 37
SWIDTH 973 0
DWIDTH 8 0
BBX 7 6 0 0
BITMAP
64
A8
A8
5E
2A
26
ENDCHAR
STARTCHAR ampersand
ENCODING 38
SWIDTH 663 0
DWIDTH 5 0
BBX 5 6 0 0
BITMAP
70
50
20
68
90
78
ENDCHAR
STARTCHAR quotesingle
ENCODING 39
SWIDTH 208 0
DWIDTH 2 0
BBX 1 2 0 4
BITMAP
80
80
ENDCHAR
STARTCHAR parenleft
ENCODING 40
SWIDTH 319 0
DWIDTH 3 0
BBX 1 7 1 -1
BITMAP
80
80
80
80
80
80
80
ENDCHAR
STARTCHAR parenright
ENCODING 41
SWIDTH 345 0
DWIDTH 3 0
BBX 2 7 1 -1
BITMAP
80
80
40
40
40
80
80
ENDCHAR
STARTCHAR asterisk
ENCODING 42
SWIDTH 348 0
DWIDTH 3 0
BBX 2 3 0 3
BITMAP
C0
C0
40
ENDCHAR
STARTCHAR plus
ENCODING 43
SWIDTH 498 0
DWIDTH 4 0
BBX 4 3 0 2
BITMAP
40
F0
40
ENDCHAR
STARTCHAR comma
ENCODING 44
SWIDTH 214 0
DWIDTH 2 0
BBX 1 2 0 -1
BITMAP
80
80
ENDCHAR
STARTCHAR hyphen
ENCODING 45
SWIDTH 368 0
DWIDTH 3 0
BBX 2 1 0 2
BITMAP
C0
ENDCHAR
STARTCHAR period
ENCODING 46
SWIDTH 218 0
DWIDTH 2 0
BBX 1 1 0 0
BITMAP
80
ENDCHAR
STARTCHAR slash
ENCODING 47
SWIDTH 331 0
DWIDTH 3 0
BBX 3 8 0 -1
BITMAP
20
20
40
40
40
80
80
80
ENDCHAR
STARTCHAR zero
ENCODING 48
SWIDTH 691 0
DWIDTH 6 0
BBX 5 6 0 0
BITMAP
70
48
88
88
48
70
ENDCHAR
STARTCHAR one
ENCODING 49
SWIDTH 387 0
DWIDTH 3 0
BBX 2 6 0 0
BITMAP
C0
40
40
40
40
40
ENDCHAR
STARTCHAR two
ENCODING 50
SWIDTH 588 0
DWIDTH 5 0
BBX 4 6 0 0
BITMAP
70
10
10
20
40
F0
ENDCHAR
STARTCHAR three
ENCODING 51
SWIDTH 539 0
DWIDTH 4 0
BBX 4 6 0 0
BITMAP
F0
20
40
30
10
E0
ENDCHAR
STARTCHAR four
ENCODING 52
SWIDTH 599 0
DWIDTH 5 0
BBX 5 6 0 0
BITMAP
20
40
50
90
F8
10
ENDCHAR
STARTCHAR five
ENCODING 53
SWIDTH 577 0
DWIDTH 5 0
BBX 4 6 0 0
BITMAP
70
40
70
10
10
F0
ENDCHAR
STARTCHAR six
ENCODING 54
SWIDTH 615 0
DWIDTH 5 0
BBX 5 6 0 0
BITMAP
70
40
B0
C8
48
70
ENDCHAR
STARTCHAR seven
ENCODING 55
SWIDTH 570 0
DWIDTH 5 0
BBX 4 6 0 0
BITMAP
F0
10
10
20
20
40
ENDCHAR
STARTCHAR eight
ENCODING 56
SWIDTH 626 0
DWIDTH 5 0
BBX 5 6 0 0
BITMAP
70
90
70
88
88
70
ENDCHAR
STARTCHAR nine
ENCODING 57
SWIDTH 615 0
DWIDTH 5 0
BBX 5 6 0 0
BITMAP
70
90
98
68
10
70
ENDCHAR
STARTCHAR colon
ENCODING 58
SWIDTH 212 0
DWIDTH 2 0
BBX 1 3 0 0
BITMAP
80
00
80
ENDCHAR
STARTCHAR semicolon
ENCODING 59
SWIDTH 216 0
DWIDTH 2 0
BBX 1 4 0 -1
BITMAP
80
00
00
80
ENDCHAR
STARTCHAR less
ENCODING 60
SWIDTH 498 0
DWIDTH 4 0
BBX 4 3 0 1
BITMAP
60
80
70
ENDCHAR
STARTCHAR equal
ENCODING 61
SWIDTH 498 0
DWIDTH 4 0
BBX 4 3 0 1
BITMAP
F0
00
F0
ENDCHAR
STARTCHAR greater
ENCODING 62
SWIDTH 498 0
DWIDTH 4 0
BBX 4 3 0 1
BITMAP
60
10
E0
ENDCHAR
STARTCHAR question
ENCODING 63
SWIDTH 443 0
DWIDTH 4 0
BBX 3 6 0 0
BITMAP
60
A0
20
40
00
40
ENDCHAR
STARTCHAR at
ENCODING 64
SWIDTH 974 0
DWIDTH 8 0
BBX 8 7 0 -1
BITMAP
3C
42
BE
A5
A6
5C
3C
ENDCHAR
STARTCHAR A
ENCODING 65
SWIDTH 738 0
DWIDTH 6 0
BBX 6 6 0 0
BITMAP
30
30
50
48
78
84
ENDCHAR
STARTCHAR B
ENCODING 66
SWIDTH 706 0
DWIDTH 6 0
BBX 4 6 1 0
BITMAP
F0
90
E0
90
90
F0
ENDCHAR
STARTCHAR C
ENCODING 67
SWIDTH 697 0
DWIDTH 6 0
BBX 5 6 0 0
BITMAP
38
40
80
80
40
38
ENDCHAR
STARTCHAR D
ENCODING 68
SWIDTH 775 0
DWIDTH 6 0
BBX 5 6 1 0
BITMAP
F0
98
88
88
98
F0
ENDCHAR
STARTCHAR E
ENCODING 69
SWIDTH 656 0
DWIDTH 5 0
BBX 4 6 1 0
BITMAP
F0
80
E0
80
80
F0
ENDCHAR
STARTCHAR F
ENCODING 70
SWIDTH 575 0
DWIDTH 5 0
BBX 3 6 1 0
BITMAP
E0
80
80
E0
80
80
ENDCHAR
STARTCHAR G
ENCODING 71
SWIDTH 749 0
DWIDTH 6 0
BBX 5 6 0 0
BITMAP
38
40
80
80
48
38
ENDCHAR
STARTCHAR H
ENCODING 72
SWIDTH 791 0
DWIDTH 6 0
BBX 5 6 1 0
BITMAP
88
88
88
F8
88
88
ENDCHAR
STARTCHAR I
ENCODING 73
SWIDTH 302 0
DWIDTH 2 0
BBX 1 6 1 0
BITMAP
80
80
80
80
80
80
ENDCHAR
STARTCHAR J
ENCODING 74
SWIDTH 499 0
DWIDTH 4 0
BBX 3 6 0 0
BITMAP
20
20
20
20
20
E0
ENDCHAR
STARTCHAR K
ENCODING 75
SWIDTH 718 0
DWIDTH 6 0
BBX 4 6 1 0
BITMAP
90
A0
C0
E0
B0
90
ENDCHAR
STARTCHAR L
ENCODING 76
SWIDTH 534 0
DWIDTH 4 0
BBX 3 6 1 0
BITMAP
80
80
80
80
80
E0
ENDCHAR
STARTCHAR M
ENCODING 77
SWIDTH 925 0
DWIDTH 7 0
BBX 6 6 1 0
BITMAP
8C
CC
D4
D4
A4
84
ENDCHAR
STARTCHAR N
ENCODING 78
SWIDTH 792 0
DWIDTH 6 0
BBX 5 6 1 0
BITMAP
88
C8
C8
A8
98
98
ENDCHAR
STARTCHAR O
ENCODING 79
SWIDTH 810 0
DWIDTH 6 0
BBX 6 6 0 0
BITMAP
38
44
84
84
44
38
ENDCHAR
STARTCHAR P
ENCODING 80
SWIDTH 673 0
DWIDTH 5 0
BBX 4 6 1 0
BITMAP
F0
90
90
F0
80
80
ENDCHAR
STARTCHAR Q
ENCODING 81
SWIDTH 825 0
DWIDTH 7 0
BBX 6 8 0 -2
BITMAP
38
44
84
84
44
38
1C
0C
ENDCHAR
STARTCHAR R
ENCODING 82
SWIDTH 723 0
DWIDTH 6 0
BBX 4 6 1 0
BITMAP
F0
90
90
F0
A0
90
ENDCHAR
STARTCHAR S
ENCODING 83
SWIDTH 622 0
DWIDTH 5 0
BBX 5 6 0 0
BITMAP
70
40
60
10
88
70
ENDCHAR
STARTCHAR T
ENCODING 84
SWIDTH 579 0
DWIDTH 5 0
BBX 5 6 0 0
BITMAP
F8
20
20
20
20
20
ENDCHAR
STARTCHAR U
ENCODING 85
SWIDTH 764 0
DWIDTH 6 0
BBX 4 6 1 0
BITMAP
90
90
90
90
90
F0
ENDCHAR
STARTCHAR V
ENCODING 86
SWIDTH 690 0
DWIDTH 6 0
BBX 5 6 0 0
BITMAP
88
48
48
50
30
20
ENDCHAR
STARTCHAR W
ENCODING 87
SWIDTH 1036 0
DWIDTH 8 0
BBX 8 6 0 0
BITMAP
89
99
59
56
66
26
ENDCHAR
STARTCHAR X
ENCODING 88
SWIDTH 692 0
DWIDTH 6 0
BBX 5 6 0 0
BITMAP
48
50
30
30
50
C8
ENDCHAR
STARTCHAR Y
ENCODING 89
SWIDTH 637 0
DWIDTH 5 0
BBX 5 6 0 0
BITMAP
88
50
50
20
20
20
ENDCHAR
STARTCHAR Z
ENCODING 90
SWIDTH 666 0
DWIDTH 5 0
BBX 5 6 0 0
BITMAP
F8
10
30
20
40
F8
ENDCHAR
STARTCHAR bracketleft
ENCODING 91
SWIDTH 345 0
DWIDTH 3 0
BBX 2 7 1 -1
BITMAP
C0
80
80
80
80
80
C0
ENDCHAR
STARTCHAR backslash
ENCODING 92
SWIDTH 545 0
DWIDTH 4 0
BBX 3 8 1 -1
BITMAP
80
80
80
40
40
20
20
20
ENDCHAR
STARTCHAR bracketright
ENCODING 93
SWIDTH 473 0
DWIDTH 4 0
BBX 2 7 1 -1
BITMAP
C0
40
40
40
40
40
C0
ENDCHAR
STARTCHAR asciicircum
ENCODING 94
SWIDTH 538 0
DWIDTH 4 0
BBX 4 3 0 1
BITMAP
60
60
90
ENDCHAR
STARTCHAR underscore
ENCODING 95
SWIDTH 566 0
DWIDTH 5 0
BBX 5 1 0 -2
BITMAP
F8
ENDCHAR
STARTCHAR grave
ENCODING 96
SWIDTH 350 0
DWIDTH 3 0
BBX 1 1 1 5
BITMAP
80
ENDCHAR
STARTCHAR a
ENCODING 97
SWIDTH 586 0
DWIDTH 5 0
BBX 4 5 0 0
BITMAP
70
10
70
90
70
ENDCHAR
STARTCHAR b
ENCODING 98
SWIDTH 680 0
DWIDTH 5 0
BBX 4 6 1 0
BITMAP
80
E0
90
90
90
E0
ENDCHAR
STARTCHAR c
ENCODING 99
SWIDTH 564 0
DWIDTH 5 0
BBX 4 5 0 0
BITMAP
70
80
80
80
70
ENDCHAR
STARTCHAR d
ENCODING 100
SWIDTH 682 0
DWIDTH 5 0
BBX 5 6 0 0
BITMAP
08
78
88
88
88
78
ENDCHAR
STARTCHAR e
ENCODING 101
SWIDTH 588 0
DWIDTH 5 0
BBX 4 5 0 0
BITMAP
70
90
F0
80
70
ENDCHAR
STARTCHAR f
ENCODING 102
SWIDTH 343 0
DWIDTH 3 0
BBX 3 6 0 0
BITMAP
60
40
E0
40
40
40
ENDCHAR
STARTCHAR g
ENCODING 103
SWIDTH 640 0
DWIDTH 5 0
BBX 5 7 0 -2
BITMAP
68
98
88
98
68
10
70
ENDCHAR
STARTCHAR h
ENCODING 104
SWIDTH 669 0
DWIDTH 5 0
BBX 4 6 1 0
BITMAP
80
E0
90
90
90
90
ENDCHAR
STARTCHAR i
ENCODING 105
SWIDTH 284 0
DWIDTH 2 0
BBX 1 7 1 0
BITMAP
80
00
80
80
80
80
80
ENDCHAR
STARTCHAR j
ENCODING 106
SWIDTH 287 0
DWIDTH 2 0
BBX 3 9 -1 -2
BITMAP
20
00
20
20
20
20
20
20
C0
ENDCHAR
STARTCHAR k
ENCODING 107
SWIDTH 595 0
DWIDTH 5 0
BBX 3 6 1 0
BITMAP
80
A0
C0
C0
A0
A0
ENDCHAR
STARTCHAR l
ENCODING 108
SWIDTH 295 0
DWIDTH 2 0
BBX 1 6 1 0
BITMAP
80
80
80
80
80
80
ENDCHAR
STARTCHAR m
ENCODING 109
SWIDTH 1043 0
DWIDTH 8 0
BBX 7 5 1 0
BITMAP
EC
92
92
92
92
ENDCHAR
STARTCHAR n
ENCODING 110
SWIDTH 663 0
DWIDTH 5 0
BBX 4 5 1 0
BITMAP
E0
90
90
90
90
ENDCHAR
STARTCHAR o
ENCODING 111
SWIDTH 625 0
DWIDTH 5 0
BBX 5 5 0 0
BITMAP
70
88
88
88
70
ENDCHAR
STARTCHAR p
ENCODING 112
SWIDTH 680 0
DWIDTH 5 0
BBX 4 7 1 -2
BITMAP
E0
90
90
90
E0
80
80
ENDCHAR
STARTCHAR q
ENCODING 113
SWIDTH 682 0
DWIDTH 5 0
BBX 5 7 0 -2
BITMAP
78
88
88
88
78
08
08
ENDCHAR
STARTCHAR r
ENCODING 114
SWIDTH 394 0
DWIDTH 3 0
BBX 2 5 1 0
BITMAP
C0
80
80
80
80
ENDCHAR
STARTCHAR s
ENCODING 115
SWIDTH 470 0
DWIDTH 4 0
BBX 3 5 0 0
BITMAP
60
80
60
20
E0
ENDCHAR
STARTCHAR t
ENCODING 116
SWIDTH 407 0
DWIDTH 3 0
BBX 3 5 0 0
BITMAP
40
E0
40
40
60
ENDCHAR
STARTCHAR u
ENCODING 117
SWIDTH 653 0
DWIDTH 5 0
BBX 4 5 1 0
BITMAP
90
90
90
B0
D0
ENDCHAR
STARTCHAR v
ENCODING 118
SWIDTH 525 0
DWIDTH 4 0
BBX 4 5 0 0
BITMAP
90
90
60
60
60
ENDCHAR
STARTCHAR w
ENCODING 119
SWIDTH 893 0
DWIDTH 7 0
BBX 7 5 0 0
BITMAP
92
92
6C
6C
64
ENDCHAR
STARTCHAR x
ENCODING 120
SWIDTH 554 0
DWIDTH 4 0
BBX 4 5 0 0
BITMAP
D0
60
20
60
90
ENDCHAR
STARTCHAR y
ENCODING 121
SWIDTH 531 0
DWIDTH 4 0
BBX 4 7 0 -2
BITMAP
90
90
60
60
60
40
C0
ENDCHAR
STARTCHAR z
ENCODING 122
SWIDTH 537 0
DWIDTH 4 0
BBX 4 5 0 0
BITMAP
F0
20
20
40
F0
ENDCHAR
STARTCHAR braceleft
ENCODING 123
SWIDTH 329 0
DWIDTH 3 0
BBX 2 7 0 -1
BITMAP
40
40
40
80
40
40
40
ENDCHAR
STARTCHAR bar
ENCODING 124
SWIDTH 269 0
DWIDTH 2 0
BBX 1 6 1 0
BITMAP
80
80
80
80
80
80
ENDCHAR
STARTCHAR braceright
ENCODING 125
SWIDTH 402 0
DWIDTH 3 0
BBX 2 7 1 -1
BITMAP
C0
40
40
40
40
40
C0
ENDCHAR
STARTCHAR asciitilde
ENCODING 126
SWIDTH 498 0
DWIDTH 4 0
BBX 2 1 1 2
BITMAP
C0
ENDCHAR
STARTCHAR nbspace
ENCODING 160
SWIDTH 258 0
DWIDTH 2 0
BBX 1 1 0 0
BITMAP
00
ENDCHAR
STARTCHAR exclamdown
ENCODING 161
SWIDTH 209 0
DWIDTH 2 0
BBX 1 6 0 -1
BITMAP
80
00
80
80
80
80
ENDCHAR
STARTCHAR cent
ENCODING 162
SWIDTH 564 0
DWIDTH 5 0
BBX 4 7 0 -1
BITMAP
20
70
A0
A0
A0
70
20
ENDCHAR
STARTCHAR sterling
ENCODING 163
SWIDTH 547 0
DWIDTH 4 0
BBX 4 6 0 0
BITMAP
70
40
40
E0
40
F0
ENDCHAR
STARTCHAR currency
ENCODING 164
SWIDTH 711 0
DWIDTH 6 0
BBX 5 5 0 0
BITMAP
F8
48
48
78
88
ENDCHAR
STARTCHAR yen
ENCODING 165
SWIDTH 628 0
DWIDTH 5 0
BBX 5 6 0 0
BITMAP
88
50
50
20
20
30
ENDCHAR
STARTCHAR brokenbar
ENCODING 166
SWIDTH 269 0
DWIDTH 2 0
BBX 1 6 1 0
BITMAP
80
80
00
00
00
80
ENDCHAR
STARTCHAR section
ENCODING 167
SWIDTH 499 0
DWIDTH 4 0
BBX 4 7 0 -1
BITMAP
60
80
60
90
60
10
60
ENDCHAR
STARTCHAR dieresis
ENCODING 168
SWIDTH 388 0
DWIDTH 3 0
BBX 3 1 0 5
BITMAP
A0
ENDCHAR
STARTCHAR copyright
ENCODING 169
SWIDTH 745 0
DWIDTH 6 0
BBX 6 5 0 0
BITMAP
78
B4
C4
A8
70
ENDCHAR
STARTCHAR ordfeminine
ENCODING 170
SWIDTH 385 0
DWIDTH 3 0
BBX 3 2 0 4
BITMAP
60
E0
ENDCHAR
STARTCHAR guillemotleft
ENCODING 171
SWIDTH 456 0
DWIDTH 4 0
BBX 3 2 0 1
BITMAP
A0
A0
ENDCHAR
STARTCHAR logicalnot
ENCODING 172
SWIDTH 562 0
DWIDTH 5 0
BBX 4 2 0 1
BITMAP
F0
10
ENDCHAR
STARTCHAR softhyphen
ENCODING 173
SWIDTH 368 0
DWIDTH 3 0
BBX 2 1 0 2
BITMAP
C0
ENDCHAR
STARTCHAR registered
ENCODING 174
SWIDTH 745 0
DWIDTH 6 0
BBX 6 5 0 0
BITMAP
F8
F4
B4
88
70
ENDCHAR
STARTCHAR macron
ENCODING 175
SWIDTH 350 0
DWIDTH 3 0
BBX 2 1 0 5
BITMAP
C0
ENDCHAR
STARTCHAR degree
ENCODING 176
SWIDTH 346 0
DWIDTH 3 0
BBX 1 1 1 5
BITMAP
80
ENDCHAR
STARTCHAR plusminus
ENCODING 177
SWIDTH 498 0
DWIDTH 4 0
BBX 4 5 0 0
BITMAP
40
F0
40
00
F0
ENDCHAR
STARTCHAR twosuperior
ENCODING 178
SWIDTH 383 0
DWIDTH 3 0
BBX 3 4 0 2
BITMAP
E0
40
40
E0
ENDCHAR
STARTCHAR threesuperior
ENCODING 179
SWIDTH 355 0
DWIDTH 3 0
BBX 2 3 1 2
BITMAP
80
40
80
ENDCHAR
STARTCHAR acute
ENCODING 180
SWIDTH 350 0
DWIDTH 3 0
BBX 1 1 1 5
BITMAP
80
ENDCHAR
STARTCHAR mu
ENCODING 181
SWIDTH 675 0
DWIDTH 5 0
BBX 4 7 1 -2
BITMAP
90
90
90
90
F0
80
80
ENDCHAR
STARTCHAR paragraph
ENCODING 182
SWIDTH 615 0
DWIDTH 5 0
BBX 4 7 0 -1
BITMAP
F0
D0
D0
50
50
50
50
ENDCHAR
STARTCHAR periodcentered
ENCODING 183
SWIDTH 212 0
DWIDTH 2 0
BBX 1 1 0 2
BITMAP
80
ENDCHAR
STARTCHAR cedilla
ENCODING 184
SWIDTH 350 0
DWIDTH 3 0
BBX 1 2 1 -2
BITMAP
80
80
ENDCHAR
STARTCHAR onesuperior
ENCODING 185
SWIDTH 262 0
DWIDTH 2 0
BBX 1 3 0 3
BITMAP
80
80
80
ENDCHAR
STARTCHAR ordmasculine
ENCODING 186
SWIDTH 407 0
DWIDTH 3 0
BBX 3 3 0 3
BITMAP
E0
A0
40
ENDCHAR
STARTCHAR guillemotright
ENCODING 187
SWIDTH 468 0
DWIDTH 4 0
BBX 2 2 1 1
BITMAP
C0
C0
ENDCHAR
STARTCHAR onequarter
ENCODING 188
SWIDTH 817 0
DWIDTH 7 0
BBX 6 6 0 0
BITMAP
88
90
90
28
54
4C
ENDCHAR
STARTCHAR onehalf
ENCODING 189
SWIDTH 839 0
DWIDTH 7 0
BBX 6 6 0 0
BITMAP
88
90
94
2C
44
4C
ENDCHAR
STARTCHAR threequarters
ENCODING 190
SWIDTH 878 0
DWIDTH 7 0
BBX 5 6 1 0
BITMAP
08
90
60
B0
58
88
ENDCHAR
STARTCHAR questiondown
ENCODING 191
SWIDTH 443 0
DWIDTH 4 0
BBX 3 6 0 -1
BITMAP
40
00
40
40
80
60
ENDCHAR
STARTCHAR Agrave
ENCODING 192
SWIDTH 738 0
DWIDTH 6 0
BBX 6 8 0 0
BITMAP
20
00
30
30
50
48
78
84
ENDCHAR
STARTCHAR Aacute
ENCODING 193
SWIDTH 738 0
DWIDTH 6 0
BBX 6 8 0 0
BITMAP
10
00
30
30
50
48
78
84
ENDCHAR
STARTCHAR Acircumflex
ENCODING 194
SWIDTH 738 0
DWIDTH 6 0
BBX 6 8 0 0
BITMAP
30
00
30
30
50
48
78
84
ENDCHAR
STARTCHAR Atilde
ENCODING 195
SWIDTH 738 0
DWIDTH 6 0
BBX 6 8 0 0
BITMAP
30
00
30
30
50
48
78
84
ENDCHAR
STARTCHAR Adieresis
ENCODING 196
SWIDTH 738 0
DWIDTH 6 0
BBX 6 8 0 0
BITMAP
30
00
30
30
50
48
78
84
ENDCHAR
STARTCHAR Aring
ENCODING 197
SWIDTH 738 0
DWIDTH 6 0
BBX 6 7 0 0
BITMAP
30
30
30
30
48
78
84
ENDCHAR
STARTCHAR AE
ENCODING 198
SWIDTH 1052 0
DWIDTH 8 0
BBX 8 6 0 0
BITMAP
1F
28
2F
48
78
8F
ENDCHAR
STARTCHAR Ccedilla
ENCODING 199
SWIDTH 697 0
DWIDTH 6 0
BBX 5 8 0 -2
BITMAP
38
40
80
80
40
78
20
30
ENDCHAR
STARTCHAR Egrave
ENCODING 200
SWIDTH 656 0
DWIDTH 5 0
BBX 4 8 1 0
BITMAP
40
00
F0
80
E0
80
80
F0
ENDCHAR
STARTCHAR Eacute
ENCODING 201
SWIDTH 656 0
DWIDTH 5 0
BBX 4 8 1 0
BITMAP
20
00
F0
80
E0
80
80
F0
ENDCHAR
STARTCHAR Ecircumflex
ENCODING 202
SWIDTH 656 0
DWIDTH 5 0
BBX 4 8 1 0
BITMAP
40
00
F0
80
E0
80
80
F0
ENDCHAR
STARTCHAR Edieresis
ENCODING 203
SWIDTH 656 0
DWIDTH 5 0
BBX 4 8 1 0
BITMAP
60
00
F0
80
E0
80
80
F0
ENDCHAR
STARTCHAR Igrave
ENCODING 204
SWIDTH 302 0
DWIDTH 2 0
BBX 2 8 0 0
BITMAP
80
00
40
40
40
40
40
40
ENDCHAR
STARTCHAR Iacute
ENCODING 205
SWIDTH 302 0
DWIDTH 2 0
BBX 1 8 1 0
BITMAP
80
00
80
80
80
80
80
80
ENDCHAR
STARTCHAR Icircumflex
ENCODING 206
SWIDTH 302 0
DWIDTH 2 0
BBX 2 8 0 0
BITMAP
40
80
40
40
40
40
40
40
ENDCHAR
STARTCHAR Idieresis
ENCODING 207
SWIDTH 302 0
DWIDTH 2 0
BBX 2 8 0 0
BITMAP
C0
00
40
40
40
40
40
40
ENDCHAR
STARTCHAR Eth
ENCODING 208
SWIDTH 795 0
DWIDTH 6 0
BBX 6 6 0 0
BITMAP
78
44
E4
44
44
78
ENDCHAR
STARTCHAR Ntilde
ENCODING 209
SWIDTH 792 0
DWIDTH 6 0
BBX 5 8 1 0
BITMAP
60
00
88
C8
C8
A8
98
98
ENDCHAR
STARTCHAR Ograve
ENCODING 210
SWIDTH 810 0
DWIDTH 6 0
BBX 6 8 0 0
BITMAP
20
00
38
44
84
84
44
38
ENDCHAR
STARTCHAR Oacute
ENCODING 211
SWIDTH 810 0
DWIDTH 6 0
BBX 6 8 0 0
BITMAP
10
00
38
44
84
84
44
38
ENDCHAR
STARTCHAR Ocircumflex
ENCODING 212
SWIDTH 810 0
DWIDTH 6 0
BBX 6 8 0 0
BITMAP
10
20
38
44
84
84
44
38
ENDCHAR
STARTCHAR Otilde
ENCODING 213
SWIDTH 810 0
DWIDTH 6 0
BBX 6 8 0 0
BITMAP
30
00
38
44
84
84
44
38
ENDCHAR
STARTCHAR Odieresis
ENCODING 214
SWIDTH 810 0
DWIDTH 6 0
BBX 6 8 0 0
BITMAP
30
00
38
44
84
84
44
38
ENDCHAR
STARTCHAR multiply
ENCODING 215
SWIDTH 498 0
DWIDTH 4 0
BBX 2 2 1 2
BITMAP
C0
C0
ENDCHAR
STARTCHAR Oslash
ENCODING 216
SWIDTH 810 0
DWIDTH 6 0
BBX 6 7 0 0
BITMAP
08
38
54
94
A4
64
38
ENDCHAR
STARTCHAR Ugrave
ENCODING 217
SWIDTH 764 0
DWIDTH 6 0
BBX 4 8 1 0
BITMAP
40
00
90
90
90
90
90
F0
ENDCHAR
STARTCHAR Uacute
ENCODING 218
SWIDTH 764 0
DWIDTH 6 0
BBX 4 8 1 0
BITMAP
20
00
90
90
90
90
90
F0
ENDCHAR
STARTCHAR Ucircumflex
ENCODING 219
SWIDTH 764 0
DWIDTH 6 0
BBX 4 8 1 0
BITMAP
60
00
90
90
90
90
90
F0
ENDCHAR
STARTCHAR Udieresis
ENCODING 220
SWIDTH 764 0
DWIDTH 6 0
BBX 4 8 1 0
BITMAP
60
00
90
90
90
90
90
F0
ENDCHAR
STARTCHAR Yacute
ENCODING 221
SWIDTH 637 0
DWIDTH 5 0
BBX 5 8 0 0
BITMAP
10
20
88
50
50
20
20
20
ENDCHAR
STARTCHAR Thorn
ENCODING 222
SWIDTH 679 0
DWIDTH 5 0
BBX 4 6 1 0
BITMAP
80
F0
90
90
F0
80
ENDCHAR
STARTCHAR germandbls
ENCODING 223
SWIDTH 654 0
DWIDTH 5 0
BBX 4 6 1 0
BITMAP
E0
90
A0
E0
90
E0
ENDCHAR
STARTCHAR agrave
ENCODING 224
SWIDTH 586 0
DWIDTH 5 0
BBX 4 7 0 0
BITMAP
40
00
70
10
70
90
70
ENDCHAR
STARTCHAR aacute
ENCODING 225
SWIDTH 586 0
DWIDTH 5 0
BBX 4 7 0 0
BITMAP
20
00
70
10
70
90
70
ENDCHAR
STARTCHAR acircumflex
ENCODING 226
SWIDTH 586 0
DWIDTH 5 0
BBX 4 6 0 0
BITMAP
60
70
10
70
90
70
ENDCHAR
STARTCHAR atilde
ENCODING 227
SWIDTH 586 0
DWIDTH 5 0
BBX 4 7 0 0
BITMAP
40
20
70
10
70
90
70
ENDCHAR
STARTCHAR adieresis
ENCODING 228
SWIDTH 586 0
DWIDTH 5 0
BBX 4 7 0 0
BITMAP
60
00
70
10
70
90
70
ENDCHAR
STARTCHAR aring
ENCODING 229
SWIDTH 586 0
DWIDTH 5 0
BBX 4 7 0 0
BITMAP
60
00
70
10
70
90
70
ENDCHAR
STARTCHAR ae
ENCODING 230
SWIDTH 974 0
DWIDTH 8 0
BBX 8 5 0 0
BITMAP
7E
12
7F
90
6E
ENDCHAR
STARTCHAR ccedilla
ENCODING 231
SWIDTH 564 0
DWIDTH 5 0
BBX 4 7 0 -2
BITMAP
70
80
80
80
70
20
20
ENDCHAR
STARTCHAR egrave
ENCODING 232
SWIDTH 588 0
DWIDTH 5 0
BBX 4 7 0 0
BITMAP
60
00
70
90
F0
80
70
ENDCHAR
STARTCHAR eacute
ENCODING 233
SWIDTH 588 0
DWIDTH 5 0
BBX 4 7 0 0
BITMAP
20
00
70
90
F0
80
70
ENDCHAR
STARTCHAR ecircumflex
ENCODING 234
SWIDTH 588 0
DWIDTH 5 0
BBX 4 6 0 0
BITMAP
60
70
90
F0
80
70
ENDCHAR
STARTCHAR edieresis
ENCODING 235
SWIDTH 588 0
DWIDTH 5 0
BBX 4 7 0 0
BITMAP
50
00
70
90
F0
80
70
ENDCHAR
STARTCHAR igrave
ENCODING 236
SWIDTH 284 0
DWIDTH 2 0
BBX 2 7 0 0
BITMAP
80
00
40
40
40
40
40
ENDCHAR
STARTCHAR iacute
ENCODING 237
SWIDTH 284 0
DWIDTH 2 0
BBX 1 7 1 0
BITMAP
80
00
80
80
80
80
80
ENDCHAR
STARTCHAR icircumflex
ENCODING 238
SWIDTH 284 0
DWIDTH 2 0
BBX 2 6 0 0
BITMAP
C0
40
40
40
40
40
ENDCHAR
STARTCHAR idieresis
ENCODING 239
SWIDTH 284 0
DWIDTH 2 0
BBX 2 7 0 0
BITMAP
C0
00
40
40
40
40
40
ENDCHAR
STARTCHAR eth
ENCODING 240
SWIDTH 590 0
DWIDTH 5 0
BBX 4 6 0 0
BITMAP
40
70
70
90
90
70
ENDCHAR
STARTCHAR ntilde
ENCODING 241
SWIDTH 663 0
DWIDTH 5 0
BBX 4 7 1 0
BITMAP
40
20
E0
90
90
90
90
ENDCHAR
STARTCHAR ograve
ENCODING 242
SWIDTH 625 0
DWIDTH 5 0
BBX 5 7 0 0
BITMAP
20
00
70
88
88
88
70
ENDCHAR
STARTCHAR oacute
ENCODING 243
SWIDTH 625 0
DWIDTH 5 0
BBX 5 7 0 0
BITMAP
20
00
70
88
88
88
70
ENDCHAR
STARTCHAR ocircumflex
ENCODING 244
SWIDTH 625 0
DWIDTH 5 0
BBX 5 6 0 0
BITMAP
70
70
88
88
88
70
ENDCHAR
STARTCHAR otilde
ENCODING 245
SWIDTH 625 0
DWIDTH 5 0
BBX 5 7 0 0
BITMAP
40
30
70
88
88
88
70
ENDCHAR
STARTCHAR odieresis
ENCODING 246
SWIDTH 625 0
DWIDTH 5 0
BBX 5 7 0 0
BITMAP
50
00
70
88
88
88
70
ENDCHAR
STARTCHAR divide
ENCODING 247
SWIDTH 498 0
DWIDTH 4 0
BBX 4 5 0 0
BITMAP
40
00
F0
00
40
ENDCHAR
STARTCHAR oslash
ENCODING 248
SWIDTH 625 0
DWIDTH 5 0
BBX 5 7 0 -1
BITMAP
10
70
A8
A8
C8
70
40
ENDCHAR
STARTCHAR ugrave
ENCODING 249
SWIDTH 653 0
DWIDTH 5 0
BBX 4 7 1 0
BITMAP
40
00
90
90
90
B0
D0
ENDCHAR
STARTCHAR uacute
ENCODING 250
SWIDTH 653 0
DWIDTH 5 0
BBX 4 7 1 0
BITMAP
40
00
90
90
90
B0
D0
ENDCHAR
STARTCHAR ucircumflex
ENCODING 251
SWIDTH 653 0
DWIDTH 5 0
BBX 4 6 1 0
BITMAP
60
90
90
90
B0
D0
ENDCHAR
STARTCHAR udieresis
ENCODING 252
SWIDTH 653 0
DWIDTH 5 0
BBX 4 7 1 0
BITMAP
A0
00
90
90
90
B0
D0
ENDCHAR
STARTCHAR yacute
ENCODING 253
SWIDTH 531 0
DWIDTH 4 0
BBX 4 9 0 -2
BITMAP
20
00
90
90
60
60
60
40
C0
ENDCHAR
STARTCHAR thorn
ENCODING 254
SWIDTH 680 0
DWIDTH 5 0
BBX 4 8 1 -2
BITMAP
80
E0
90
90
90
E0
80
80
ENDCHAR
STARTCHAR ydieresis
ENCODING 255
SWIDTH 531 0
DWIDTH 4 0
BBX 4 9 0 -2
BITMAP
60
00
90
90
60
60
60
40
C0
ENDCHAR
STARTCHAR Amacron
ENCODING 256
SWIDTH 738 0
DWIDTH 6 0
BBX 6 8 0 0
BITMAP
30
00
30
30
50
48
78
84
ENDCHAR
STARTCHAR amacron
ENCODING 257
SWIDTH 586 0
DWIDTH 5 0
BBX 4 7 0 0
BITMAP
60
00
70
10
70
90
70
ENDCHAR
STARTCHAR Abreve
ENCODING 258
SWIDTH 738 0
DWIDTH 6 0
BBX 6 8 0 0
BITMAP
30
00
30
30
50
48
78
84
ENDCHAR
STARTCHAR abreve
ENCODING 259
SWIDTH 586 0
DWIDTH 5 0
BBX 4 6 0 0
BITMAP
60
70
10
70
90
70
ENDCHAR
STARTCHAR Aogonek
ENCODING 260
SWIDTH 738 0
DWIDTH 6 0
BBX 6 8 0 -2
BITMAP
30
30
50
48
78
84
08
04
ENDCHAR
STARTCHAR aogonek
ENCODING 261
SWIDTH 590 0
DWIDTH 5 0
BBX 4 7 0 -2
BITMAP
70
10
70
90
70
10
10
ENDCHAR
STARTCHAR Cacute
ENCODING 262
SWIDTH 697 0
DWIDTH 6 0
BBX 5 8 0 0
BITMAP
10
00
38
40
80
80
40
38
ENDCHAR
STARTCHAR cacute
ENCODING 263
SWIDTH 564 0
DWIDTH 5 0
BBX 4 7 0 0
BITMAP
20
00
70
80
80
80
70
ENDCHAR
STARTCHAR Ccaron
ENCODING 268
SWIDTH 697 0
DWIDTH 6 0
BBX 5 8 0 0
BITMAP
30
00
38
40
80
80
40
38
ENDCHAR
STARTCHAR ccaron
ENCODING 269
SWIDTH 564 0
DWIDTH 5 0
BBX 4 6 0 0
BITMAP
20
70
80
80
80
70
ENDCHAR
STARTCHAR Dcaron
ENCODING 270
SWIDTH 775 0
DWIDTH 6 0
BBX 5 8 1 0
BITMAP
60
00
F0
98
88
88
98
F0
ENDCHAR
STARTCHAR dcaron
ENCODING 271
SWIDTH 719 0
DWIDTH 6 0
BBX 6 6 0 0
BITMAP
0C
78
88
88
88
78
ENDCHAR
STARTCHAR Dcroat
ENCODING 272
SWIDTH 775 0
DWIDTH 6 0
BBX 5 8 1 0
BITMAP
60
00
F0
98
88
88
98
F0
ENDCHAR
STARTCHAR dcroat
ENCODING 273
SWIDTH 679 0
DWIDTH 5 0
BBX 5 6 0 0
BITMAP
18
78
88
88
88
78
ENDCHAR
STARTCHAR Emacron
ENCODING 274
SWIDTH 656 0
DWIDTH 5 0
BBX 4 8 1 0
BITMAP
60
00
F0
80
E0
80
80
F0
ENDCHAR
STARTCHAR emacron
ENCODING 275
SWIDTH 588 0
DWIDTH 5 0
BBX 4 7 0 0
BITMAP
60
00
70
90
F0
80
70
ENDCHAR
STARTCHAR Edotaccent
ENCODING 278
SWIDTH 656 0
DWIDTH 5 0
BBX 4 8 1 0
BITMAP
40
00
F0
80
E0
80
80
F0
ENDCHAR
STARTCHAR edotaccent
ENCODING 279
SWIDTH 588 0
DWIDTH 5 0
BBX 4 7 0 0
BITMAP
20
00
70
90
F0
80
70
ENDCHAR
STARTCHAR Eogonek
ENCODING 280
SWIDTH 665 0
DWIDTH 5 0
BBX 4 8 1 -2
BITMAP
F0
80
E0
80
80
F0
20
10
ENDCHAR
STARTCHAR eogonek
ENCODING 281
SWIDTH 588 0
DWIDTH 5 0
BBX 4 7 0 -2
BITMAP
70
90
F0
80
70
20
10
ENDCHAR
STARTCHAR Ecaron
ENCODING 282
SWIDTH 656 0
DWIDTH 5 0
BBX 4 8 1 0
BITMAP
20
40
F0
80
E0
80
80
F0
ENDCHAR
STARTCHAR ecaron
ENCODING 283
SWIDTH 588 0
DWIDTH 5 0
BBX 4 6 0 0
BITMAP
20
70
90
F0
80
70
ENDCHAR
STARTCHAR Gbreve
ENCODING 286
SWIDTH 749 0
DWIDTH 6 0
BBX 5 8 0 0
BITMAP
30
00
38
40
80
80
48
38
ENDCHAR
STARTCHAR gbreve
ENCODING 287
SWIDTH 640 0
DWIDTH 5 0
BBX 5 8 0 -2
BITMAP
20
68
98
88
98
68
10
70
ENDCHAR
STARTCHAR Gcommaaccent
ENCODING 290
SWIDTH 749 0
DWIDTH 6 0
BBX 5 6 0 0
BITMAP
38
40
80
80
48
38
ENDCHAR
STARTCHAR gcommaaccent
ENCODING 291
SWIDTH 640 0
DWIDTH 5 0
BBX 5 9 0 -2
BITMAP
20
20
68
98
88
98
68
10
70
ENDCHAR
STARTCHAR hbar
ENCODING 295
SWIDTH 815 0
DWIDTH 7 0
BBX 5 6 0 0
BITMAP
E0
70
48
48
48
48
ENDCHAR
STARTCHAR Itilde
ENCODING 296
SWIDTH 302 0
DWIDTH 2 0
BBX 2 8 0 0
BITMAP
C0
00
40
40
40
40
40
40
ENDCHAR
STARTCHAR itilde
ENCODING 297
SWIDTH 284 0
DWIDTH 2 0
BBX 2 7 0 0
BITMAP
80
40
40
40
40
40
40
ENDCHAR
STARTCHAR Imacron
ENCODING 298
SWIDTH 302 0
DWIDTH 2 0
BBX 2 8 0 0
BITMAP
C0
00
40
40
40
40
40
40
ENDCHAR
STARTCHAR imacron
ENCODING 299
SWIDTH 284 0
DWIDTH 2 0
BBX 2 7 0 0
BITMAP
C0
00
40
40
40
40
40
ENDCHAR
STARTCHAR Iogonek
ENCODING 302
SWIDTH 302 0
DWIDTH 2 0
BBX 1 8 1 -2
BITMAP
80
80
80
80
80
80
80
80
ENDCHAR
STARTCHAR iogonek
ENCODING 303
SWIDTH 267 0
DWIDTH 2 0
BBX 2 9 0 -2
BITMAP
40
00
40
40
40
40
40
80
C0
ENDCHAR
STARTCHAR Idotaccent
ENCODING 304
SWIDTH 302 0
DWIDTH 2 0
BBX 1 8 1 0
BITMAP
80
00
80
80
80
80
80
80
ENDCHAR
STARTCHAR dotlessi
ENCODING 305
SWIDTH 284 0
DWIDTH 2 0
BBX 1 5 1 0
BITMAP
80
80
80
80
80
ENDCHAR
STARTCHAR IJ
ENCODING 306
SWIDTH 801 0
DWIDTH 6 0
BBX 5 6 1 0
BITMAP
B8
88
88
88
88
B0
ENDCHAR
STARTCHAR ij
ENCODING 307
SWIDTH 571 0
DWIDTH 5 0
BBX 3 9 1 -2
BITMAP
A0
00
A0
A0
A0
A0
A0
20
40
ENDCHAR
STARTCHAR Jcircumflex
ENCODING 308
SWIDTH 499 0
DWIDTH 4 0
BBX 3 8 0 0
BITMAP
40
20
E0
20
20
20
20
E0
ENDCHAR
STARTCHAR jcircumflex
ENCODING 309
SWIDTH 274 0
DWIDTH 2 0
BBX 3 8 -1 -2
BITMAP
60
20
20
20
20
20
20
C0
ENDCHAR
STARTCHAR Kcommaaccent
ENCODING 310
SWIDTH 718 0
DWIDTH 6 0
BBX 4 8 1 -2
BITMAP
90
A0
C0
E0
B0
90
00
40
ENDCHAR
STARTCHAR kcedilla
ENCODING 311
SWIDTH 595 0
DWIDTH 5 0
BBX 4 8 0 -2
BITMAP
40
50
60
60
50
50
80
C0
ENDCHAR
STARTCHAR kgreenlandic
ENCODING 312
SWIDTH 590 0
DWIDTH 5 0
BBX 3 5 1 0
BITMAP
A0
C0
C0
A0
A0
ENDCHAR
STARTCHAR Lacute
ENCODING 313
SWIDTH 534 0
DWIDTH 4 0
BBX 3 8 1 0
BITMAP
80
00
80
80
80
80
80
E0
ENDCHAR
STARTCHAR lacute
ENCODING 314
SWIDTH 295 0
DWIDTH 2 0
BBX 1 8 1 0
BITMAP
80
00
80
80
80
80
80
80
ENDCHAR
STARTCHAR Lcommaaccent
ENCODING 315
SWIDTH 534 0
DWIDTH 4 0
BBX 3 8 1 -2
BITMAP
80
80
80
80
80
E0
40
40
ENDCHAR
STARTCHAR lcommaaccent
ENCODING 316
SWIDTH 295 0
DWIDTH 2 0
BBX 1 8 1 -2
BITMAP
80
80
80
80
80
80
80
80
ENDCHAR
STARTCHAR Lcaron
ENCODING 317
SWIDTH 534 0
DWIDTH 4 0
BBX 3 6 1 0
BITMAP
A0
A0
80
80
80
E0
ENDCHAR
STARTCHAR lcaron
ENCODING 318
SWIDTH 320 0
DWIDTH 3 0
BBX 2 6 1 0
BITMAP
C0
C0
80
80
80
80
ENDCHAR
STARTCHAR Ldot
ENCODING 319
SWIDTH 534 0
DWIDTH 4 0
BBX 3 6 1 0
BITMAP
80
80
A0
80
80
E0
ENDCHAR
STARTCHAR ldot
ENCODING 320
SWIDTH 333 0
DWIDTH 3 0
BBX 2 6 1 0
BITMAP
80
80
80
C0
80
80
ENDCHAR
STARTCHAR Lslash
ENCODING 321
SWIDTH 551 0
DWIDTH 4 0
BBX 4 6 0 0
BITMAP
40
60
C0
40
40
70
ENDCHAR
STARTCHAR lslash
ENCODING 322
SWIDTH 310 0
DWIDTH 2 0
BBX 3 6 0 0
BITMAP
40
60
C0
40
40
40
ENDCHAR
STARTCHAR Nacute
ENCODING 323
SWIDTH 792 0
DWIDTH 6 0
BBX 5 8 1 0
BITMAP
20
00
88
C8
C8
A8
98
98
ENDCHAR
STARTCHAR nacute
ENCODING 324
SWIDTH 663 0
DWIDTH 5 0
BBX 4 7 1 0
BITMAP
20
00
E0
90
90
90
90
ENDCHAR
STARTCHAR Ncommaaccent
ENCODING 325
SWIDTH 792 0
DWIDTH 6 0
BBX 5 8 1 -2
BITMAP
88
C8
C8
A8
98
98
00
40
ENDCHAR
STARTCHAR ncommaaccent
ENCODING 326
SWIDTH 663 0
DWIDTH 5 0
BBX 4 7 1 -2
BITMAP
E0
90
90
90
90
40
40
ENDCHAR
STARTCHAR Ncaron
ENCODING 327
SWIDTH 792 0
DWIDTH 6 0
BBX 5 8 1 0
BITMAP
60
00
88
C8
C8
A8
98
98
ENDCHAR
STARTCHAR ncaron
ENCODING 328
SWIDTH 663 0
DWIDTH 5 0
BBX 4 6 1 0
BITMAP
40
E0
90
90
90
90
ENDCHAR
STARTCHAR Omacron
ENCODING 332
SWIDTH 810 0
DWIDTH 6 0
BBX 6 8 0 0
BITMAP
30
00
38
44
84
84
44
38
ENDCHAR
STARTCHAR omacron
ENCODING 333
SWIDTH 625 0
DWIDTH 5 0
BBX 5 7 0 0
BITMAP
70
00
70
88
88
88
70
ENDCHAR
STARTCHAR Ohungarumlaut
ENCODING 336
SWIDTH 810 0
DWIDTH 6 0
BBX 6 8 0 0
BITMAP
08
00
38
44
84
84
44
38
ENDCHAR
STARTCHAR ohungarumlaut
ENCODING 337
SWIDTH 625 0
DWIDTH 5 0
BBX 5 7 0 0
BITMAP
50
00
70
88
88
88
70
ENDCHAR
STARTCHAR OE
ENCODING 338
SWIDTH 1097 0
DWIDTH 9 0
BBX 8 6 0 0
BITMAP
7F
48
8F
88
48
3F
ENDCHAR
STARTCHAR oe
ENCODING 339
SWIDTH 1040 0
DWIDTH 8 0
BBX 8 5 0 0
BITMAP
76
89
8F
88
76
ENDCHAR
STARTCHAR Racute
ENCODING 340
SWIDTH 723 0
DWIDTH 6 0
BBX 4 8 1 0
BITMAP
20
00
F0
90
90
F0
A0
90
ENDCHAR
STARTCHAR racute
ENCODING 341
SWIDTH 394 0
DWIDTH 3 0
BBX 2 7 1 0
BITMAP
C0
00
C0
80
80
80
80
ENDCHAR
STARTCHAR Rcommaaccent
ENCODING 342
SWIDTH 723 0
DWIDTH 6 0
BBX 4 8 1 -2
BITMAP
F0
90
90
F0
A0
90
00
40
ENDCHAR
STARTCHAR rcommaaccent
ENCODING 343
SWIDTH 394 0
DWIDTH 3 0
BBX 2 7 1 -2
BITMAP
C0
80
80
80
80
00
80
ENDCHAR
STARTCHAR Rcaron
ENCODING 344
SWIDTH 723 0
DWIDTH 6 0
BBX 4 8 1 0
BITMAP
20
40
F0
90
90
F0
A0
90
ENDCHAR
STARTCHAR rcaron
ENCODING 345
SWIDTH 394 0
DWIDTH 3 0
BBX 2 6 1 0
BITMAP
80
C0
80
80
80
80
ENDCHAR
STARTCHAR Sacute
ENCODING 346
SWIDTH 622 0
DWIDTH 5 0
BBX 5 7 0 0
BITMAP
20
70
40
60
10
88
70
ENDCHAR
STARTCHAR sacute
ENCODING 347
SWIDTH 470 0
DWIDTH 4 0
BBX 3 7 0 0
BITMAP
20
00
60
80
60
20
E0
ENDCHAR
STARTCHAR Scedilla
ENCODING 350
SWIDTH 622 0
DWIDTH 5 0
BBX 5 8 0 -2
BITMAP
70
40
60
10
88
70
20
20
ENDCHAR
STARTCHAR scedilla
ENCODING 351
SWIDTH 470 0
DWIDTH 4 0
BBX 3 7 0 -2
BITMAP
60
80
60
20
E0
40
60
ENDCHAR
STARTCHAR Scaron
ENCODING 352
SWIDTH 622 0
DWIDTH 5 0
BBX 5 8 0 0
BITMAP
50
20
70
40
60
10
88
70
ENDCHAR
STARTCHAR scaron
ENCODING 353
SWIDTH 470 0
DWIDTH 4 0
BBX 3 6 0 0
BITMAP
60
60
80
60
20
E0
ENDCHAR
STARTCHAR Tcedilla
ENCODING 354
SWIDTH 579 0
DWIDTH 5 0
BBX 5 8 0 -2
BITMAP
F8
20
20
20
20
20
40
20
ENDCHAR
STARTCHAR tcedilla
ENCODING 355
SWIDTH 407 0
DWIDTH 3 0
BBX 3 7 0 -2
BITMAP
40
E0
40
40
60
40
60
ENDCHAR
STARTCHAR Tcaron
ENCODING 356
SWIDTH 579 0
DWIDTH 5 0
BBX 5 8 0 0
BITMAP
40
20
F8
20
20
20
20
20
ENDCHAR
STARTCHAR tcaron
ENCODING 357
SWIDTH 382 0
DWIDTH 3 0
BBX 3 6 0 0
BITMAP
20
40
E0
40
40
60
ENDCHAR
STARTCHAR Umacron
ENCODING 362
SWIDTH 764 0
DWIDTH 6 0
BBX 4 8 1 0
BITMAP
60
00
90
90
90
90
90
F0
ENDCHAR
STARTCHAR umacron
ENCODING 363
SWIDTH 653 0
DWIDTH 5 0
BBX 4 7 1 0
BITMAP
60
00
90
90
90
B0
D0
ENDCHAR
STARTCHAR Uring
ENCODING 366
SWIDTH 764 0
DWIDTH 6 0
BBX 4 8 1 0
BITMAP
60
00
90
90
90
90
90
F0
ENDCHAR
STARTCHAR uring
ENCODING 367
SWIDTH 653 0
DWIDTH 5 0
BBX 4 7 1 0
BITMAP
C0
00
90
90
90
B0
D0
ENDCHAR
STARTCHAR Uhungarumlaut
ENCODING 368
SWIDTH 764 0
DWIDTH 6 0
BBX 4 8 1 0
BITMAP
50
00
90
90
90
90
90
F0
ENDCHAR
STARTCHAR uhungarumlaut
ENCODING 369
SWIDTH 653 0
DWIDTH 5 0
BBX 4 7 1 0
BITMAP
60
00
90
90
90
B0
D0
ENDCHAR
STARTCHAR Uogonek
ENCODING 370
SWIDTH 765 0
DWIDTH 6 0
BBX 4 8 1 -2
BITMAP
90
90
90
90
90
F0
20
20
ENDCHAR
STARTCHAR uogonek
ENCODING 371
SWIDTH 648 0
DWIDTH 5 0
BBX 4 7 1 -2
BITMAP
90
90
90
B0
D0
20
30
ENDCHAR
STARTCHAR Wcircumflex
ENCODING 372
SWIDTH 1036 0
DWIDTH 8 0
BBX 8 8 0 0
BITMAP
08
10
89
99
59
56
66
26
ENDCHAR
STARTCHAR wcircumflex
ENCODING 373
SWIDTH 893 0
DWIDTH 7 0
BBX 7 6 0 0
BITMAP
18
92
92
6C
6C
64
ENDCHAR
STARTCHAR Ycircumflex
ENCODING 374
SWIDTH 637 0
DWIDTH 5 0
BBX 5 8 0 0
BITMAP
20
00
88
50
50
20
20
20
ENDCHAR
STARTCHAR ycircumflex
ENCODING 375
SWIDTH 531 0
DWIDTH 4 0
BBX 4 8 0 -2
BITMAP
60
90
90
60
60
60
40
C0
ENDCHAR
STARTCHAR Ydieresis
ENCODING 376
SWIDTH 637 0
DWIDTH 5 0
BBX 5 8 0 0
BITMAP
50
00
88
50
50
20
20
20
ENDCHAR
STARTCHAR Zacute
ENCODING 377
SWIDTH 666 0
DWIDTH 5 0
BBX 5 8 0 0
BITMAP
10
00
F8
10
30
20
40
F8
ENDCHAR
STARTCHAR zacute
ENCODING 378
SWIDTH 537 0
DWIDTH 4 0
BBX 4 7 0 0
BITMAP
20
00
F0
20
20
40
F0
ENDCHAR
STARTCHAR Zdotaccent
ENCODING 379
SWIDTH 666 0
DWIDTH 5 0
BBX 5 8 0 0
BITMAP
20
00
F8
10
30
20
40
F8
ENDCHAR
STARTCHAR zdotaccent
ENCODING 380
SWIDTH 537 0
DWIDTH 4 0
BBX 4 7 0 0
BITMAP
20
00
F0
20
20
40
F0
ENDCHAR
STARTCHAR Zcaron
ENCODING 381
SWIDTH 666 0
DWIDTH 5 0
BBX 5 8 0 0
BITMAP
10
20
F8
10
30
20
40
F8
ENDCHAR
STARTCHAR zcaron
ENCODING 382
SWIDTH 537 0
DWIDTH 4 0
BBX 4 6 0 0
BITMAP
60
F0
20
20
40
F0
ENDCHAR
STARTCHAR florin
ENCODING 402
SWIDTH 372 0
DWIDTH 3 0
BBX 4 8 -1 -2
BITMAP
30
20
70
20
20
40
40
C0
ENDCHAR
STARTCHAR Scommaaccent
ENCODING 536
SWIDTH 622 0
DWIDTH 5 0
BBX 5 8 0 -2
BITMAP
70
40
60
10
88
70
20
20
ENDCHAR
STARTCHAR scommaaccent
ENCODING 537
SWIDTH 470 0
DWIDTH 4 0
BBX 3 5 0 0
BITMAP
60
80
60
20
E0
ENDCHAR
STARTCHAR Tcommaaccent
ENCODING 538
SWIDTH 579 0
DWIDTH 5 0
BBX 5 8 0 -2
BITMAP
F8
20
20
20
20
20
20
40
ENDCHAR
STARTCHAR tcommaaccent
ENCODING 539
SWIDTH 407 0
DWIDTH 3 0
BBX 3 5 0 0
BITMAP
40
E0
40
40
60
ENDCHAR
STARTCHAR dotlessj
ENCODING 567
SWIDTH 274 0
DWIDTH 2 0
BBX 3 7 -1 -2
BITMAP
20
20
20
20
20
20
C0
ENDCHAR
STARTCHAR circumflex
ENCODING 710
SWIDTH 350 0
DWIDTH 3 0
BBX 1 1 1 5
BITMAP
80
ENDCHAR
STARTCHAR caron
ENCODING 711
SWIDTH 350 0
DWIDTH 3 0
BBX 2 1 0 5
BITMAP
C0
ENDCHAR
STARTCHAR firsttonechinese
ENCODING 713
SWIDTH 350 0
DWIDTH 3 0
BBX 2 1 0 5
BITMAP
C0
ENDCHAR
STARTCHAR breve
ENCODING 728
SWIDTH 350 0
DWIDTH 3 0
BBX 2 2 0 4
BITMAP
C0
40
ENDCHAR
STARTCHAR dotaccent
ENCODING 729
SWIDTH 350 0
DWIDTH 3 0
BBX 1 1 1 5
BITMAP
80
ENDCHAR
STARTCHAR ring
ENCODING 730
SWIDTH 350 0
DWIDTH 3 0
BBX 2 1 0 5
BITMAP
C0
ENDCHAR
STARTCHAR ogonek
ENCODING 731
SWIDTH 350 0
DWIDTH 3 0
BBX 1 1 1 -2
BITMAP
80
ENDCHAR
STARTCHAR tilde
ENCODING 732
SWIDTH 350 0
DWIDTH 3 0
BBX 2 2 0 5
BITMAP
80
40
ENDCHAR
STARTCHAR hungarumlaut
ENCODING 733
SWIDTH 350 0
DWIDTH 3 0
BBX 3 1 0 5
BITMAP
A0
ENDCHAR
STARTCHAR commaaccent
ENCODING 806
SWIDTH 0 0
DWIDTH 0 0
BBX 1 1 0 -2
BITMAP
80
ENDCHAR
STARTCHAR Delta
ENCODING 916
SWIDTH 738 0
DWIDTH 6 0
BBX 6 6 0 0
BITMAP
30
30
50
48
48
FC
ENDCHAR
STARTCHAR pi
ENCODING 960
SWIDTH 725 0
DWIDTH 6 0
BBX 6 5 0 0
BITMAP
FC
A8
48
48
48
ENDCHAR
STARTCHAR Wgrave
ENCODING 7808
SWIDTH 1036 0
DWIDTH 8 0
BBX 8 8 0 0
BITMAP
10
00
89
99
59
56
66
26
ENDCHAR
STARTCHAR wgrave
ENCODING 7809
SWIDTH 893 0
DWIDTH 7 0
BBX 7 7 0 0
BITMAP
10
00
92
92
6C
6C
64
ENDCHAR
STARTCHAR Wacute
ENCODING 7810
SWIDTH 1036 0
DWIDTH 8 0
BBX 8 8 0 0
BITMAP
08
00
89
99
59
56
66
26
ENDCHAR
STARTCHAR wacute
ENCODING 7811
SWIDTH 893 0
DWIDTH 7 0
BBX 7 7 0 0
BITMAP
10
00
92
92
6C
6C
64
ENDCHAR
STARTCHAR Wdieresis
ENCODING 7812
SWIDTH 1036 0
DWIDTH 8 0
BBX 8 8 0 0
BITMAP
18
00
89
99
59
56
66
26
ENDCHAR
STARTCHAR wdieresis
ENCODING 7813
SWIDTH 893 0
DWIDTH 7 0
BBX 7 7 0 0
BITMAP
28
00
92
92
6C
6C
64
ENDCHAR
STARTCHAR Ygrave
ENCODING 7922
SWIDTH 637 0
DWIDTH 5 0
BBX 5 8 0 0
BITMAP
40
20
88
50
50
20
20
20
ENDCHAR
STARTCHAR ygrave
ENCODING 7923
SWIDTH 531 0
DWIDTH 4 0
BBX 4 9 0 -2
BITMAP
40
00
90
90
60
60
60
40
C0
ENDCHAR
STARTCHAR endash
ENCODING 8211
SWIDTH 405 0
DWIDTH 3 0
BBX 3 1 0 2
BITMAP
E0
ENDCHAR
STARTCHAR emdash
ENCODING 8212
SWIDTH 691 0
DWIDTH 6 0
BBX 6 1 0 2
BITMAP
FC
ENDCHAR
STARTCHAR quoteleft
ENCODING 8216
SWIDTH 214 0
DWIDTH 2 0
BBX 1 2 0 4
BITMAP
80
80
ENDCHAR
STARTCHAR quoteright
ENCODING 8217
SWIDTH 214 0
DWIDTH 2 0
BBX 1 2 0 4
BITMAP
80
80
ENDCHAR
STARTCHAR quotesinglbase
ENCODING 8218
SWIDTH 214 0
DWIDTH 2 0
BBX 1 2 0 -1
BITMAP
80
80
ENDCHAR
STARTCHAR quotedblleft
ENCODING 8220
SWIDTH 296 0
DWIDTH 2 0
BBX 2 2 0 4
BITMAP
C0
80
ENDCHAR
STARTCHAR quotedblright
ENCODING 8221
SWIDTH 333 0
DWIDTH 3 0
BBX 3 2 0 4
BITMAP
A0
80
ENDCHAR
STARTCHAR quotedblbase
ENCODING 8222
SWIDTH 363 0
DWIDTH 3 0
BBX 3 2 0 -1
BITMAP
A0
80
ENDCHAR
STARTCHAR dagger
ENCODING 8224
SWIDTH 536 0
DWIDTH 4 0
BBX 4 8 0 -2
BITMAP
20
20
F0
20
20
20
20
20
ENDCHAR
STARTCHAR daggerdbl
ENCODING 8225
SWIDTH 536 0
DWIDTH 4 0
BBX 4 8 0 -2
BITMAP
20
20
F0
20
20
F0
20
20
ENDCHAR
STARTCHAR bullet
ENCODING 8226
SWIDTH 281 0
DWIDTH 2 0
BBX 2 1 0 2
BITMAP
C0
ENDCHAR
STARTCHAR ellipsis
ENCODING 8230
SWIDTH 608 0
DWIDTH 5 0
BBX 4 1 0 0
BITMAP
B0
ENDCHAR
STARTCHAR perthousand
ENCODING 8240
SWIDTH 1420 0
DWIDTH 11 0
BBX 11 6 0 0
BITMAP
6400
A800
A840
5EA0
2AA0
26E0
ENDCHAR
STARTCHAR guilsinglleft
ENCODING 8249
SWIDTH 276 0
DWIDTH 2 0
BBX 1 2 0 1
BITMAP
80
80
ENDCHAR
STARTCHAR guilsinglright
ENCODING 8250
SWIDTH 288 0
DWIDTH 2 0
BBX 1 2 1 1
BITMAP
80
80
ENDCHAR
STARTCHAR fraction
ENCODING 8260
SWIDTH 80 0
DWIDTH 1 0
BBX 4 6 -2 0
BITMAP
10
10
20
40
40
80
ENDCHAR
STARTCHAR Euro
ENCODING 8364
SWIDTH 790 0
DWIDTH 6 0
BBX 6 6 0 0
BITMAP
3C
64
F0
F0
64
3C
ENDCHAR
STARTCHAR literSign
ENCODING 8467
SWIDTH 467 0
DWIDTH 4 0
BBX 3 6 0 0
BITMAP
20
60
60
40
80
60
ENDCHAR
STARTCHAR trademark
ENCODING 8482
SWIDTH 886 0
DWIDTH 7 0
BBX 7 3 0 3
BITMAP
F2
5E
5A
ENDCHAR
STARTCHAR Omega
ENCODING 8486
SWIDTH 882 0
DWIDTH 7 0
BBX 7 6 0 0
BITMAP
38
44
44
44
44
EE
ENDCHAR
STARTCHAR estimated
ENCODING 8494
SWIDTH 809 0
DWIDTH 6 0
BBX 5 5 1 0
BITMAP
F0
88
F0
80
F0
ENDCHAR
STARTCHAR oneeighth
ENCODING 8539
SWIDTH 834 0
DWIDTH 7 0
BBX 6 6 0 0
BITMAP
88
90
90
3C
4C
4C
ENDCHAR
STARTCHAR threeeighths
ENCODING 8540
SWIDTH 896 0
DWIDTH 7 0
BBX 7 6 0 0
BITMAP
04
48
30
DE
2E
4E
ENDCHAR
STARTCHAR fiveeighths
ENCODING 8541
SWIDTH 914 0
DWIDTH 7 0
BBX 7 6 0 0
BITMAP
E4
C8
34
5A
26
4E
ENDCHAR
STARTCHAR seveneighths
ENCODING 8542
SWIDTH 881 0
DWIDTH 7 0
BBX 7 6 0 0
BITMAP
E8
48
50
6E
2E
4E
ENDCHAR
STARTCHAR partialdiff
ENCODING 8706
SWIDTH 615 0
DWIDTH 5 0
BBX 5 6 0 0
BITMAP
F0
10
70
98
90
70
ENDCHAR
STARTCHAR product
ENCODING 8719
SWIDTH 750 0
DWIDTH 6 0
BBX 4 8 1 -2
BITMAP
F0
90
90
90
90
90
90
90
ENDCHAR
STARTCHAR summation
ENCODING 8721
SWIDTH 611 0
DWIDTH 5 0
BBX 5 7 0 -1
BITMAP
F8
40
20
10
20
40
F8
ENDCHAR
STARTCHAR minus
ENCODING 8722
SWIDTH 498 0
DWIDTH 4 0
BBX 4 1 0 2
BITMAP
F0
ENDCHAR
STARTCHAR divisionslash
ENCODING 8725
SWIDTH 331 0
DWIDTH 3 0
BBX 3 8 0 -1
BITMAP
20
20
40
40
40
80
80
80
ENDCHAR
STARTCHAR bulletoperator
ENCODING 8729
SWIDTH 281 0
DWIDTH 2 0
BBX 2 1 0 2
BITMAP
C0
ENDCHAR
STARTCHAR radical
ENCODING 8730
SWIDTH 689 0
DWIDTH 6 0
BBX 5 7 0 -1
BITMAP
08
08
08
D0
50
50
30
ENDCHAR
STARTCHAR infinity
ENCODING 8734
SWIDTH 875 0
DWIDTH 7 0
BBX 7 3 0 1
BITMAP
6C
92
6C
ENDCHAR
STARTCHAR integral
ENCODING 8747
SWIDTH 342 0
DWIDTH 3 0
BBX 3 8 0 -1
BITMAP
60
40
40
40
40
40
40
C0
ENDCHAR
STARTCHAR approxequal
ENCODING 8776
SWIDTH 498 0
DWIDTH 4 0
BBX 2 3 1 1
BITMAP
C0
00
C0
ENDCHAR
STARTCHAR notequal
ENCODING 8800
SWIDTH 498 0
DWIDTH 4 0
BBX 4 5 0 0
BITMAP
20
F0
40
F0
40
ENDCHAR
STARTCHAR lessequal
ENCODING 8804
SWIDTH 498 0
DWIDTH 4 0
BBX 4 5 0 0
BITMAP
10
60
C0
30
F0
ENDCHAR
STARTCHAR greaterequal
ENCODING 8805
SWIDTH 498 0
DWIDTH 4 0
BBX 4 5 0 0
BITMAP
80
60
20
C0
F0
ENDCHAR
STARTCHAR lozenge
ENCODING 9674
SWIDTH 536 0
DWIDTH 4 0
BBX 4 5 0 0
BITMAP
20
60
90
60
20
ENDCHAR
STARTCHAR fi
ENCODING 64257
SWIDTH 627 0
DWIDTH 5 0
BBX 4 6 0 0
BITMAP
70
F0
50
50
50
50
ENDCHAR
STARTCHAR fl
ENCODING 64258
SWIDTH 651 0
DWIDTH 5 0
BBX 4 6 0 0
BITMAP
70
50
F0
50
50
50
ENDCHAR
STARTCHAR .notdef
ENCODING -1
SWIDTH 500 0
DWIDTH 4 0
BBX 4 6 0 0
BITMAP
F0
B0
F0
F0
B0
F0
ENDCHAR
STARTCHAR zero.dnom
ENCODING -1
SWIDTH 447 0
DWIDTH 4 0
BBX 3 4 0 0
BITMAP
40
A0
A0
60
ENDCHAR
STARTCHAR one.dnom
ENCODING -1
SWIDTH 262 0
DWIDTH 2 0
BBX 1 4 0 0
BITMAP
80
80
80
80
ENDCHAR
STARTCHAR two.dnom
ENCODING -1
SWIDTH 383 0
DWIDTH 3 0
BBX 3 4 0 0
BITMAP
40
20
40
E0
ENDCHAR
STARTCHAR three.dnom
ENCODING -1
SWIDTH 355 0
DWIDTH 3 0
BBX 2 4 0 0
BITMAP
C0
40
40
C0
ENDCHAR
STARTCHAR four.dnom
ENCODING -1
SWIDTH 394 0
DWIDTH 3 0
BBX 2 4 0 0
BITMAP
40
80
C0
40
ENDCHAR
STARTCHAR five.dnom
ENCODING -1
SWIDTH 377 0
DWIDTH 3 0
BBX 3 4 0 0
BITMAP
E0
80
E0
E0
ENDCHAR
STARTCHAR six.dnom
ENCODING -1
SWIDTH 401 0
DWIDTH 3 0
BBX 3 3 0 0
BITMAP
C0
E0
60
ENDCHAR
STARTCHAR seven.dnom
ENCODING -1
SWIDTH 374 0
DWIDTH 3 0
BBX 3 3 0 0
BITMAP
E0
40
40
ENDCHAR
STARTCHAR eight.dnom
ENCODING -1
SWIDTH 407 0
DWIDTH 3 0
BBX 3 3 0 0
BITMAP
E0
E0
E0
ENDCHAR
STARTCHAR nine.dnom
ENCODING -1
SWIDTH 403 0
DWIDTH 3 0
BBX 3 4 0 0
BITMAP
40
A0
20
C0
ENDCHAR
STARTCHAR zero.numr
ENCODING -1
SWIDTH 447 0
DWIDTH 4 0
BBX 3 4 0 2
BITMAP
60
A0
A0
40
ENDCHAR
STARTCHAR one.numr
ENCODING -1
SWIDTH 262 0
DWIDTH 2 0
BBX 1 3 0 3
BITMAP
80
80
80
ENDCHAR
STARTCHAR two.numr
ENCODING -1
SWIDTH 383 0
DWIDTH 3 0
BBX 3 4 0 2
BITMAP
E0
40
40
E0
ENDCHAR
STARTCHAR three.numr
ENCODING -1
SWIDTH 355 0
DWIDTH 3 0
BBX 2 3 1 2
BITMAP
80
40
80
ENDCHAR
STARTCHAR four.numr
ENCODING -1
SWIDTH 394 0
DWIDTH 3 0
BBX 3 3 0 3
BITMAP
40
80
E0
ENDCHAR
STARTCHAR five.numr
ENCODING -1
SWIDTH 377 0
DWIDTH 3 0
BBX 3 4 0 2
BITMAP
E0
80
60
40
ENDCHAR
STARTCHAR six.numr
ENCODING -1
SWIDTH 401 0
DWIDTH 3 0
BBX 3 4 0 2
BITMAP
60
80
E0
40
ENDCHAR
STARTCHAR seven.numr
ENCODING -1
SWIDTH 374 0
DWIDTH 3 0
BBX 3 3 0 3
BITMAP
E0
40
40
ENDCHAR
STARTCHAR eight.numr
ENCODING -1
SWIDTH 407 0
DWIDTH 3 0
BBX 3 4 0 2
BITMAP
E0
60
A0
40
ENDCHAR
STARTCHAR nine.numr
ENCODING -1
SWIDTH 403 0
DWIDTH 3 0
BBX 3 4 0 2
BITMAP
E0
E0
20
40
ENDCHAR
ENDFONT
